{"accessors" : [{"bufferView" : 0, "byteOffset" : 0, "componentType" : 5123, "count" : 20376, "type" : "SCALAR", "max" : [20375], "min" : [0]}, {"bufferView" : 1, "byteOffset" : 0, "componentType" : 5126, "count" : 20376, "type" : "VEC3", "max" : [6.017499923706055, 3.9970998764038086, -9.964499473571777], "min" : [-6.017499923706055, 1.4290000200271606, -12.045199394226074]}, {"bufferView" : 1, "byteOffset" : 12, "componentType" : 5126, "count" : 20376, "type" : "VEC3", "max" : [0.9997154474258423, 0.9976066946983337, 0.9980369210243225], "min" : [-0.9997164011001587, -0.9155165553092957, -0.9755027294158936]}, {"bufferView" : 1, "byteOffset" : 24, "componentType" : 5126, "count" : 20376, "type" : "VEC2", "max" : [0.762999951839447, -0.01109999418258667], "min" : [0.009200000204145908, -0.8604999780654907]}, {"bufferView" : 0, "byteOffset" : 40752, "componentType" : 5123, "count" : 45174, "type" : "SCALAR", "max" : [45173], "min" : [0]}, {"bufferView" : 3, "byteOffset" : 0, "componentType" : 5126, "count" : 45174, "type" : "VEC3", "max" : [5.624897480010986, 2.661099910736084, -0.6578995585441589], "min" : [-5.5843024253845215, -1.2399998903274536, -16.23659896850586]}, {"bufferView" : 3, "byteOffset" : 12, "componentType" : 5126, "count" : 45174, "type" : "VEC3", "max" : [0.9997311234474182, 0.9999877214431763, 0.9997408986091614], "min" : [-0.999567449092865, -0.9997106194496155, -0.9958838820457458]}, {"bufferView" : 3, "byteOffset" : 24, "componentType" : 5126, "count" : 45174, "type" : "VEC2", "max" : [0.9865999817848206, -0.013400018215179443], "min" : [0.013399999588727951, -0.9805999994277954]}, {"bufferView" : 0, "byteOffset" : 131100, "componentType" : 5123, "count" : 11748, "type" : "SCALAR", "max" : [11747], "min" : [0]}, {"bufferView" : 5, "byteOffset" : 0, "componentType" : 5126, "count" : 11748, "type" : "VEC3", "max" : [2.6633999347686768, 2.307800054550171, 0.27469998598098755], "min" : [-2.6633999347686768, -0.5167999863624573, -1.450699806213379]}, {"bufferView" : 5, "byteOffset" : 12, "componentType" : 5126, "count" : 11748, "type" : "VEC3", "max" : [0.9999468922615051, 0.9985582828521729, 0.9992401599884033], "min" : [-0.9999464750289917, -0.9998818635940552, -0.999754786491394]}, {"bufferView" : 5, "byteOffset" : 24, "componentType" : 5126, "count" : 11748, "type" : "VEC2", "max" : [0.8460999727249146, -0.036499977111816406], "min" : [0.02499999850988388, -0.8852999806404114]}, {"bufferView" : 0, "byteOffset" : 154596, "componentType" : 5125, "count" : 104598, "type" : "SCALAR", "max" : [104597], "min" : [0]}, {"bufferView" : 7, "byteOffset" : 0, "componentType" : 5126, "count" : 104598, "type" : "VEC3", "max" : [1.0887839794158936, 1.7858974933624268, -15.512350082397461], "min" : [-1.0454636812210083, -0.5882634520530701, -18.723894119262695]}, {"bufferView" : 7, "byteOffset" : 12, "componentType" : 5126, "count" : 104598, "type" : "VEC3", "max" : [0.9999073147773743, 0.9999946355819702, 0.9997875094413757], "min" : [-0.9999809265136719, -1.0000027418136597, -0.9999533891677856]}, {"bufferView" : 7, "byteOffset" : 24, "componentType" : 5126, "count" : 104598, "type" : "VEC2", "max" : [0.965115487575531, -0.008229613304138184], "min" : [0.006938000209629536, -0.9867039918899536]}], "asset" : {"generator" : "Aspose.3D 20.9.1", "version" : "2.0"}, "buffers" : [{"uri" : "buffer.bin", "byteLength" : 17616756}], "bufferViews" : [{"buffer" : 0, "byteOffset" : 0, "byteLength" : 572988, "target" : 34963}, {"buffer" : 0, "byteOffset" : 572992, "byteLength" : 652032, "byteStride" : 32, "target" : 34962}, {"buffer" : 0, "byteOffset" : 1225028, "byteLength" : 4190827}, {"buffer" : 0, "byteOffset" : 5415856, "byteLength" : 1445568, "byteStride" : 32, "target" : 34962}, {"buffer" : 0, "byteOffset" : 6861428, "byteLength" : 2681356}, {"buffer" : 0, "byteOffset" : 9542788, "byteLength" : 375936, "byteStride" : 32, "target" : 34962}, {"buffer" : 0, "byteOffset" : 9918728, "byteLength" : 399857}, {"buffer" : 0, "byteOffset" : 10318588, "byteLength" : 3347136, "byteStride" : 32, "target" : 34962}, {"buffer" : 0, "byteOffset" : 13665728, "byteLength" : 3951027}], "images" : [{"mimeType" : "image/png", "bufferView" : 2}, {"mimeType" : "image/png", "bufferView" : 4}, {"mimeType" : "image/png", "bufferView" : 6}, {"mimeType" : "image/png", "bufferView" : 8}], "materials" : [{"pbrMetallicRoughness" : {"baseColorFactor" : [0.800000011920929, 0.800000011920929, 0.800000011920929, 1], "baseColorTexture" : {"index" : 0, "texCoord" : 0}, "metallicFactor" : 0, "roughnessFactor" : 0}, "emissiveFactor" : [0, 0, 0], "alphaMode" : "OPAQUE", "doubleSided" : false}, {"pbrMetallicRoughness" : {"baseColorFactor" : [0.800000011920929, 0.800000011920929, 0.800000011920929, 1], "baseColorTexture" : {"index" : 1, "texCoord" : 0}, "metallicFactor" : 0, "roughnessFactor" : 0}, "emissiveFactor" : [0, 0, 0], "alphaMode" : "OPAQUE", "doubleSided" : false}, {"pbrMetallicRoughness" : {"baseColorFactor" : [0.800000011920929, 0.800000011920929, 0.800000011920929, 1], "baseColorTexture" : {"index" : 2, "texCoord" : 0}, "metallicFactor" : 0, "roughnessFactor" : 0}, "emissiveFactor" : [0, 0, 0], "alphaMode" : "OPAQUE", "doubleSided" : false}, {"pbrMetallicRoughness" : {"baseColorFactor" : [1, 1, 1, 1], "baseColorTexture" : {"index" : 3, "texCoord" : 0}, "metallicFactor" : 0, "roughnessFactor" : 0}, "emissiveFactor" : [0, 0, 0], "alphaMode" : "OPAQUE", "doubleSided" : false}], "meshes" : [{"primitives" : [{"attributes" : {"POSITION" : 1, "NORMAL" : 2, "TEXCOORD_0" : 3}, "indices" : 0, "material" : 0, "mode" : 4}, {"attributes" : {"POSITION" : 5, "NORMAL" : 6, "TEXCOORD_0" : 7}, "indices" : 4, "material" : 1, "mode" : 4}, {"attributes" : {"POSITION" : 9, "NORMAL" : 10, "TEXCOORD_0" : 11}, "indices" : 8, "material" : 2, "mode" : 4}, {"attributes" : {"POSITION" : 13, "NORMAL" : 14, "TEXCOORD_0" : 15}, "indices" : 12, "material" : 3, "mode" : 4}]}], "nodes" : [{"matrix" : [100, 0, 0, 0, 0, -1.6292070447359886E-05, 100.00001525878774, 0, 0, -100.00001525878774, -1.6292070447359886E-05, 0, 0, 0, 0, 1], "mesh" : 0, "name" : "male_suit_base"}], "samplers" : [{"magFilter" : 9729, "minFilter" : 9729, "wrapS" : 10497, "wrapT" : 10497}, {"magFilter" : 9729, "minFilter" : 9729, "wrapS" : 10497, "wrapT" : 10497}, {"magFilter" : 9729, "minFilter" : 9729, "wrapS" : 10497, "wrapT" : 10497}, {"magFilter" : 9729, "minFilter" : 9729, "wrapS" : 10497, "wrapT" : 10497}], "scene" : 0, "scenes" : [{"nodes" : [0]}], "textures" : [{"sampler" : 0, "source" : 0}, {"sampler" : 1, "source" : 1}, {"sampler" : 2, "source" : 2}, {"sampler" : 3, "source" : 3}]}